<svg xmlns="http://www.w3.org/2000/svg" width="815" height="633.38" viewBox="0 0 815 633.38"><defs><style>.a{fill:none;stroke:#000;stroke-miterlimit:10;stroke-width:15px;}</style></defs><title>high-heel-icon</title><path class="a" d="M773.75,175.46c-16.81-29.42-33.37-53.71-34.07-54.73L726.91,102l-19.58,11.34c-5,2.89-123.2,72.67-217.15,244.29C390.15,540.4,330.1,552,293.6,544.87c-47.06-9.23-64.79-23.3-67.41-25.57l-11-14.58L39,595.55l-1.27.87c-2.84,2-27.75,19.93-27.75,49,0,12.51,1.37,30.2,13.26,39.33l5.7,4.38,336.56,27.42a139.44,139.44,0,0,0,20.15,1.36,158.89,158.89,0,0,0,30.24-2.87c38.23-7.45,67.73-28.65,85.32-61.31l4.86-9c17.44-32.51,43.8-81.65,73.14-123.79,40.64-58.36,67.78-75.93,83.4-80.39,19.78-5.65,35.55-10.07,48-13.49-5.37,38-12.17,97.65-9.41,141.11V669h-7.39v48.77h64.62V669H750V567.37l-.05-1.62c-3.16-47.42,7.12-120.77,12-152l.35-.08,5-10.64c4.37-9.27,42.7-91.8,42.7-134C810,256.11,806.24,232.31,773.75,175.46Z" transform="translate(-2.5 -92.07)"/></svg>