<svg xmlns="http://www.w3.org/2000/svg" width="2420" height="1150" viewBox="0 0 2420 1150"><defs><style>.a,.b{fill:#fff;}.b,.e{stroke:#000;}.b,.c,.d,.e{stroke-miterlimit:10;}.b{stroke-width:50px;}.c,.d,.e{fill:none;stroke-width:52px;}.c{stroke:#fff;}.d{stroke:#c1272d;}.f{fill:#c1272d;}</style></defs><title>taconez-logo</title><rect class="a" x="1667.5" y="459.5" width="644" height="240"/><rect x="108.5" y="459.5" width="661" height="240"/><path class="b" d="M1676.5,577.5c0,262.34-212.66,475-475,475s-475-212.66-475-475"/><path d="M701.5,577.5c0-276.14,223.86-500,500-500s500,223.86,500,500"/><path class="c" d="M1473.83,432l100.33,60a6.56,6.56,0,0,1-3.37,12.19H1279.1a6.56,6.56,0,0,1-5.38-2.8L945.12,294a6.56,6.56,0,0,0-11.94,3.76v206.4L843,503.55V439.93"/><line class="d" x1="769.5" y1="576.37" x2="1631.5" y2="576.37"/><path class="e" d="M1474.78,718.93l100.33-60a6.56,6.56,0,0,0-3.37-12.19h-291.7a6.56,6.56,0,0,0-5.38,2.8L946.07,856.91a6.56,6.56,0,0,1-11.94-3.76V646.76l-90.15.66V711"/><path class="f" d="M1109.62,288.5c2.84,13.22,5.07,26.44,7.2,39.66s4,26.44,5.65,39.66c3.39,26.44,6.09,52.89,8.31,79.33s3.91,52.89,5.21,79.33,2.15,52.89,2.63,79.33l1.09,60.12-48.43-37.62c-6.53-5.08-13-10.26-19.46-15.4s-12.88-10.39-19.32-15.58l-19.17-15.76c-6.34-5.32-12.73-10.57-19-15.95l47.37-22.73q-.35,45.49-1.9,91t-4.49,91q-1.48,22.75-3.36,45.51t-4.25,45.52q-2.34,22.76-5.31,45.53c-2,15.18-4.14,30.36-6.87,45.54-3-15.14-5.33-30.28-7.58-45.43s-4.22-30.29-6-45.44-3.45-30.3-5-45.45-2.85-30.3-4.07-45.45q-3.69-45.46-5.91-90.93t-3.32-90.95l-1.42-60.61L1051,520.61c6.54,5.07,13,10.27,19.46,15.4l19.31,15.59c6.38,5.26,12.8,10.48,19.16,15.78s12.72,10.58,19,16l-47.34,22.49q.72-39.66,2.63-79.33c1.3-26.44,3-52.89,5.21-79.33s4.93-52.89,8.31-79.33q2.52-19.83,5.65-39.66C1104.55,314.94,1106.78,301.72,1109.62,288.5Z"/><path class="a" d="M191.85,668.17V522.76H134.5V489H290.66v33.79H233.32V668.17Z"/><path class="a" d="M437.87,668.17h43.52L401.26,489h-41l-79.87,179.2h42.5l16-38.4H422ZM352,598.28l28.52-68.58,28.41,68.58Z"/><path class="a" d="M583.27,671.24a107.31,107.31,0,0,1-38.53-6.78,89.47,89.47,0,0,1-51.2-48.77,98.08,98.08,0,0,1,0-74.24A88.76,88.76,0,0,1,514,512a92.22,92.22,0,0,1,30.85-19.33,107,107,0,0,1,38.66-6.78q23.29,0,42.11,8.06a82.09,82.09,0,0,1,31.62,23.68l-26.62,24.58a62.36,62.36,0,0,0-20.48-15.74,57.53,57.53,0,0,0-24.58-5.25,62.9,62.9,0,0,0-23,4.1,52.22,52.22,0,0,0-18.18,11.78,53.79,53.79,0,0,0-11.9,18.18,66.35,66.35,0,0,0,0,46.59A53.75,53.75,0,0,0,544.36,620a52.17,52.17,0,0,0,18.18,11.78,62.83,62.83,0,0,0,23,4.1,57.47,57.47,0,0,0,24.58-5.25,60.94,60.94,0,0,0,20.48-16l26.62,24.58a83.2,83.2,0,0,1-31.62,23.81Q606.83,671.24,583.27,671.24Z"/><polygon points="1876.12 488.97 1876.12 597.69 1787.03 488.97 1752.73 488.97 1752.73 668.17 1793.69 668.17 1793.69 559.4 1883.03 668.17 1917.08 668.17 1917.08 488.97 1876.12 488.97"/><polygon points="2000.79 634.89 2000.79 593.42 2083.99 593.42 2083.99 561.16 2000.79 561.16 2000.79 522.25 2095 522.25 2095 488.97 1959.58 488.97 1959.58 668.17 2098.33 668.17 2098.33 634.89 2000.79 634.89"/><polygon points="2174.57 634.38 2272.66 515.85 2272.66 488.97 2121.88 488.97 2121.88 522.76 2218.15 522.76 2119.83 641.29 2119.83 668.17 2276.5 668.17 2276.5 634.38 2174.57 634.38"/></svg>