<svg xmlns="http://www.w3.org/2000/svg" xmlns:xlink="http://www.w3.org/1999/xlink" width="2421" height="1150" viewBox="0 0 2421 1150"><defs><style>.a{fill:url(#a);}.b,.c,.h{fill:#fff;}.c,.f{stroke:#000;}.c,.d,.e,.f{stroke-miterlimit:10;}.c{stroke-width:50px;}.d,.e,.f{fill:none;stroke-width:52px;}.d{stroke:#fff;}.e{stroke:#c1272d;}.g{fill:#c1272d;}.h,.k{font-size:250px;font-family:Montserrat-Black, Montserrat;}.i{letter-spacing:-0.03em;}.j{letter-spacing:-0.01em;}</style><linearGradient id="a" x1="35.5" y1="575" x2="2385.5" y2="575" gradientUnits="userSpaceOnUse"><stop offset="0" stop-color="#fff"/><stop offset="1"/></linearGradient></defs><title>taconez-logo</title><rect class="a" x="35.5" y="35" width="2350" height="1080" rx="156.93" ry="156.93"/><rect class="b" x="1671" y="459.5" width="641" height="240"/><rect x="109" y="459.5" width="664" height="240"/><path class="c" d="M1680,577.5c0,262.34-212.66,475-475,475s-475-212.66-475-475"/><path d="M705,577.5c0-276.14,223.86-500,500-500s500,223.86,500,500"/><path class="d" d="M1477.33,432l100.33,60a6.56,6.56,0,0,1-3.37,12.19H1282.6a6.56,6.56,0,0,1-5.38-2.8L948.62,294a6.56,6.56,0,0,0-11.94,3.76v206.4l-90.15-.66V439.93"/><line class="e" x1="773" y1="576.37" x2="1635" y2="576.37"/><path class="f" d="M1478.28,718.93l100.33-60a6.56,6.56,0,0,0-3.37-12.19h-291.7a6.56,6.56,0,0,0-5.38,2.8L949.57,856.91a6.56,6.56,0,0,1-11.94-3.76V646.76l-90.15.66V711"/><path class="g" d="M1113.12,288.5c2.84,13.22,5.07,26.44,7.2,39.66s4,26.44,5.65,39.66c3.39,26.44,6.09,52.89,8.31,79.33s3.91,52.89,5.21,79.33,2.15,52.89,2.63,79.33l1.09,60.12-48.43-37.62c-6.53-5.08-13-10.26-19.46-15.4s-12.88-10.39-19.32-15.58l-19.17-15.76c-6.34-5.32-12.73-10.57-19-15.95l47.37-22.73q-.35,45.49-1.9,91t-4.49,91q-1.48,22.75-3.36,45.51t-4.25,45.52q-2.34,22.76-5.31,45.53c-2,15.18-4.14,30.36-6.87,45.54-3-15.14-5.33-30.28-7.58-45.43s-4.22-30.29-6-45.44-3.45-30.3-5-45.45-2.85-30.3-4.07-45.45q-3.69-45.46-5.91-90.93t-3.32-90.95l-1.42-60.61,48.79,37.87c6.54,5.07,13,10.27,19.46,15.4l19.31,15.59c6.38,5.26,12.8,10.48,19.16,15.78s12.72,10.58,19,16l-47.34,22.49q.72-39.66,2.63-79.33c1.3-26.44,3-52.89,5.21-79.33s4.93-52.89,8.31-79.33q2.52-19.83,5.65-39.66C1108,314.94,1110.28,301.72,1113.12,288.5Z"/><text class="h" transform="translate(134.5 668.17)"><tspan class="i">T</tspan><tspan class="j" x="154.75" y="0">A</tspan><tspan x="353.75" y="0">C</tspan></text><text class="k" transform="translate(1732.73 668.17)">NEZ</text></svg>