<svg xmlns="http://www.w3.org/2000/svg" xmlns:xlink="http://www.w3.org/1999/xlink" width="1150" height="1150" viewBox="0 0 1150 1150"><defs><style>.a{fill:url(#a);}.b,.c,.d{fill:none;stroke-miterlimit:10;stroke-width:52px;}.b{stroke:#fff;}.c{stroke:#c1272d;}.d{stroke:#000;}.e{fill:#c1272d;}</style><linearGradient id="a" x1="575" y1="1100" x2="575" y2="50" gradientUnits="userSpaceOnUse"><stop offset="0" stop-color="#003b6a"/><stop offset="1" stop-color="#0074d0"/></linearGradient></defs><title>taconez-logo</title><rect class="a" x="50" y="50" width="1050" height="1050" rx="156.93" ry="156.93"/><path class="b" d="M848.33,409.29l100.33,60a6.56,6.56,0,0,1-3.37,12.19H653.6a6.56,6.56,0,0,1-5.38-2.8L319.62,271.31a6.56,6.56,0,0,0-11.94,3.76v206.4l-90.15-.66V417.19"/><line class="c" x1="144" y1="553.62" x2="1006" y2="553.62"/><path class="d" d="M849.28,696.19l100.33-60A6.56,6.56,0,0,0,946.25,624H654.55a6.56,6.56,0,0,0-5.38,2.8L320.57,834.17a6.56,6.56,0,0,1-11.94-3.76V624l-90.15.66v63.62"/><path class="e" d="M484.12,265.76c2.84,13.22,5.07,26.44,7.2,39.66s4,26.44,5.65,39.66c3.39,26.44,6.09,52.89,8.31,79.33s3.91,52.89,5.21,79.33,2.15,52.89,2.63,79.33l1.09,60.12-48.43-37.62c-6.53-5.08-13-10.26-19.46-15.4S433.45,579.78,427,574.59l-19.17-15.76c-6.34-5.32-12.73-10.57-19-15.95l47.37-22.73q-.35,45.49-1.9,91t-4.49,91q-1.48,22.75-3.36,45.51t-4.25,45.52q-2.34,22.76-5.31,45.53c-2,15.18-4.14,30.36-6.87,45.54-3-15.14-5.33-30.28-7.58-45.43s-4.22-30.29-6-45.44-3.45-30.3-5-45.45-2.85-30.3-4.07-45.45q-3.69-45.46-5.91-90.93t-3.32-90.95L376.72,460l48.79,37.87c6.54,5.07,13,10.27,19.46,15.4l19.31,15.59c6.38,5.26,12.8,10.48,19.16,15.78s12.72,10.58,19,16l-47.34,22.49q.72-39.66,2.63-79.33c1.3-26.44,3-52.89,5.21-79.33s4.93-52.89,8.31-79.33q2.52-19.83,5.65-39.66C479,292.2,481.28,279,484.12,265.76Z"/></svg>