<svg xmlns="http://www.w3.org/2000/svg" xmlns:xlink="http://www.w3.org/1999/xlink" width="2420" height="1150" viewBox="0 0 2420 1150"><defs><style>.a{fill:url(#a);}.b,.c{fill:#fff;}.c,.f{stroke:#000;}.c,.d,.e,.f{stroke-miterlimit:10;}.c{stroke-width:50px;}.d,.e,.f{fill:none;stroke-width:52px;}.d{stroke:#fff;}.e{stroke:#c1272d;}.g{fill:#c1272d;}</style><linearGradient id="a" x1="2385" y1="575" x2="35" y2="575" gradientUnits="userSpaceOnUse"><stop offset="0" stop-color="#fff"/><stop offset="1"/></linearGradient></defs><title>taconez-logo</title><rect class="a" x="35" y="35" width="2350" height="1080" rx="156.93" ry="156.93"/><rect class="b" x="1673" y="459.5" width="712" height="240"/><rect x="35" y="459.5" width="740" height="240"/><path class="c" d="M1682,577.5c0,262.34-212.66,475-475,475s-475-212.66-475-475"/><path d="M707,577.5c0-276.14,223.86-500,500-500s500,223.86,500,500"/><path class="d" d="M1479.33,432l100.33,60a6.56,6.56,0,0,1-3.37,12.19H1284.6a6.56,6.56,0,0,1-5.38-2.8L950.62,294a6.56,6.56,0,0,0-11.94,3.76v206.4l-90.15-.66V439.93"/><line class="e" x1="775" y1="576.37" x2="1637" y2="576.37"/><path class="f" d="M1480.28,718.93l100.33-60a6.56,6.56,0,0,0-3.37-12.19h-291.7a6.56,6.56,0,0,0-5.38,2.8L951.57,856.91a6.56,6.56,0,0,1-11.94-3.76V646.76l-90.15.66V711"/><path class="g" d="M1115.12,288.5c2.84,13.22,5.07,26.44,7.2,39.66s4,26.44,5.65,39.66c3.39,26.44,6.09,52.89,8.31,79.33s3.91,52.89,5.21,79.33,2.15,52.89,2.63,79.33l1.09,60.12-48.43-37.62c-6.53-5.08-13-10.26-19.46-15.4s-12.88-10.39-19.32-15.58l-19.17-15.76c-6.34-5.32-12.73-10.57-19-15.95l47.37-22.73q-.35,45.49-1.9,91t-4.49,91q-1.48,22.75-3.36,45.51t-4.25,45.52q-2.34,22.76-5.31,45.53c-2,15.18-4.14,30.36-6.87,45.54-3-15.14-5.33-30.28-7.58-45.43s-4.22-30.29-6-45.44-3.45-30.3-5-45.45-2.85-30.3-4.07-45.45q-3.69-45.46-5.91-90.93t-3.32-90.95l-1.42-60.61,48.79,37.87c6.54,5.07,13,10.27,19.46,15.4l19.31,15.59c6.38,5.26,12.8,10.48,19.16,15.78s12.72,10.58,19,16l-47.34,22.49q.72-39.66,2.63-79.33c1.3-26.44,3-52.89,5.21-79.33s4.93-52.89,8.31-79.33q2.52-19.83,5.65-39.66C1110,314.94,1112.28,301.72,1115.12,288.5Z"/><path class="b" d="M197.35,668.17V522.76H140V489H296.16v33.79H238.82V668.17Z"/><path class="b" d="M443.37,668.17h43.52L406.76,489h-41l-79.87,179.2h42.5l16-38.4h83.07Zm-85.88-69.89L386,529.7l28.41,68.58Z"/><path class="b" d="M588.77,671.24a107.31,107.31,0,0,1-38.53-6.78A89.47,89.47,0,0,1,499,615.69a98.08,98.08,0,0,1,0-74.24A88.76,88.76,0,0,1,519.52,512a92.22,92.22,0,0,1,30.85-19.33A107,107,0,0,1,589,485.9q23.29,0,42.11,8.06a82.09,82.09,0,0,1,31.62,23.68l-26.62,24.58a62.36,62.36,0,0,0-20.48-15.74,57.53,57.53,0,0,0-24.58-5.25,62.9,62.9,0,0,0-23,4.1,52.22,52.22,0,0,0-18.18,11.78A53.79,53.79,0,0,0,538,555.27a66.35,66.35,0,0,0,0,46.59A53.75,53.75,0,0,0,549.86,620,52.17,52.17,0,0,0,568,631.82a62.83,62.83,0,0,0,23,4.1,57.47,57.47,0,0,0,24.58-5.25,60.94,60.94,0,0,0,20.48-16l26.62,24.58a83.2,83.2,0,0,1-31.62,23.81Q612.33,671.24,588.77,671.24Z"/><polygon points="1881.62 488.97 1881.62 597.69 1792.53 488.97 1758.23 488.97 1758.23 668.17 1799.19 668.17 1799.19 559.4 1888.53 668.17 1922.58 668.17 1922.58 488.97 1881.62 488.97"/><polygon points="2006.29 634.89 2006.29 593.42 2089.49 593.42 2089.49 561.16 2006.29 561.16 2006.29 522.25 2100.5 522.25 2100.5 488.97 1965.08 488.97 1965.08 668.17 2103.83 668.17 2103.83 634.89 2006.29 634.89"/><polygon points="2180.07 634.38 2278.16 515.85 2278.16 488.97 2127.38 488.97 2127.38 522.76 2223.65 522.76 2125.33 641.29 2125.33 668.17 2282 668.17 2282 634.38 2180.07 634.38"/></svg>