<svg xmlns="http://www.w3.org/2000/svg" width="1150" height="1150" viewBox="0 0 1150 1150"><defs><style>.a,.b{fill:none;stroke:#fff;stroke-miterlimit:10;}.a{stroke-width:52px;}.b{stroke-width:33px;}</style></defs><title>taconez-logo</title><path class="a" d="M870,708.19q50.58,32.07,100.33,60a6.56,6.56,0,0,1-3.37,12.19H675.25a6.56,6.56,0,0,1-5.38-2.8L341.28,570.21A6.56,6.56,0,0,0,329.34,574v206.4l-90.15-.66V326.88H384.38c.53,106.56,303.21,255.45,449.05,358C862.18,705.14,839.27,688.72,870,708.19Z"/><path class="b" d="M384.38,326.88s-107.19,53.19-33,124.24c66.3,63.48,403.19,329.25,482,233.79"/></svg>