<svg xmlns="http://www.w3.org/2000/svg" width="1150" height="1150" viewBox="0 0 1150 1150"><defs><style>.a{fill:none;}.a,.b{stroke:#fff;stroke-miterlimit:10;stroke-width:10px;}.b{fill:#fff;}</style></defs><title>taconez-logo</title><path class="a" d="M970.32,768.17a6.56,6.56,0,0,1-3.37,12.19H675.25a6.56,6.56,0,0,1-5.38-2.8L341.28,570.21A6.56,6.56,0,0,0,329.34,574v206.4l-90.15-.66V326.88c156-12.16,169.45,32.77,224.16,85C452.94,460.79,554.61,539,677.21,603.09c43.91,23,139.87,71.78,156.22,81.82C865.33,704.5,937.19,749.53,970.32,768.17Z"/><path class="b" d="M833.43,684.91c-16.35-10-112.32-58.86-156.22-81.82C565.8,544.85,471.68,475,463.23,426c0,0-39.12-11.71-66.66-14.1s-64.21,2.66-58.05,24.69c6.57,23.54,63.62,70.62,133.75,122.06,37.52,27.52,82.86,57.63,128.34,84.42C731.1,719.94,833.43,684.91,833.43,684.91Z"/></svg>