<svg xmlns="http://www.w3.org/2000/svg" width="2420" height="1150" viewBox="0 0 2420 1150"><defs><style>.a,.b{fill:#fff;}.b,.e{stroke:#000;}.b,.c,.d,.e{stroke-miterlimit:10;}.b{stroke-width:50px;}.c,.d,.e{fill:none;stroke-width:52px;}.c{stroke:#fff;}.d{stroke:#c1272d;}.f{fill:#c1272d;}</style></defs><title>taconez-logo-full</title><rect class="a" x="113.5" y="455" width="2203" height="240"/><path class="b" d="M1684.5,573c0,262.34-212.66,475-475,475s-475-212.66-475-475"/><path d="M709.5,573c0-276.14,223.86-500,500-500s500,223.86,500,500"/><path class="c" d="M1481.83,447.53l100.33,60a6.56,6.56,0,0,1-3.37,12.19H1287.1a6.56,6.56,0,0,1-5.38-2.8L953.12,309.55a6.56,6.56,0,0,0-11.94,3.76v206.4L851,519V455.43"/><line class="d" x1="777.5" y1="571.87" x2="1639.5" y2="571.87"/><path class="e" d="M1482.78,694.43l100.33-60a6.56,6.56,0,0,0-3.37-12.19h-291.7a6.56,6.56,0,0,0-5.38,2.8L954.07,832.41a6.56,6.56,0,0,1-11.94-3.76V622.26l-90.15.66v63.62"/><path class="f" d="M1117.62,284c2.84,13.22,5.07,26.44,7.2,39.66s4,26.44,5.65,39.66c3.39,26.44,6.09,52.89,8.31,79.33s3.91,52.89,5.21,79.33,2.15,52.89,2.63,79.33l1.09,60.12-48.43-37.62c-6.53-5.08-13-10.26-19.46-15.4S1067,598,1060.51,592.83l-19.17-15.76c-6.34-5.32-12.73-10.57-19-15.95l47.37-22.73q-.35,45.49-1.9,91t-4.49,91q-1.48,22.75-3.36,45.51t-4.25,45.52q-2.34,22.76-5.31,45.53c-2,15.18-4.14,30.36-6.87,45.54-3-15.14-5.33-30.28-7.58-45.43s-4.22-30.29-6-45.44-3.45-30.3-5-45.45-2.85-30.3-4.07-45.45q-3.69-45.46-5.91-90.93t-3.32-90.95l-1.42-60.61L1059,516.11c6.54,5.07,13,10.27,19.46,15.4l19.31,15.59c6.38,5.26,12.8,10.48,19.16,15.78s12.72,10.58,19,16l-47.34,22.49q.72-39.66,2.63-79.33c1.3-26.44,3-52.89,5.21-79.33s4.93-52.89,8.31-79.33q2.52-19.83,5.65-39.66C1112.55,310.44,1114.78,297.22,1117.62,284Z"/><path d="M199.85,663.67V518.26H142.5V484.47H298.66v33.79H241.32V663.67Z"/><path d="M445.87,663.67h43.52l-80.13-179.2h-41l-79.87,179.2h42.5l16-38.4H430ZM360,593.78l28.52-68.58,28.41,68.58Z"/><path d="M591.27,666.74A107.31,107.31,0,0,1,552.75,660a89.47,89.47,0,0,1-51.2-48.77,98.08,98.08,0,0,1,0-74.24A88.76,88.76,0,0,1,522,507.51a92.22,92.22,0,0,1,30.85-19.33,107,107,0,0,1,38.66-6.78q23.29,0,42.11,8.06a82.09,82.09,0,0,1,31.62,23.68l-26.62,24.58A62.36,62.36,0,0,0,618.15,522a57.53,57.53,0,0,0-24.58-5.25,62.9,62.9,0,0,0-23,4.1,52.22,52.22,0,0,0-18.18,11.78,53.79,53.79,0,0,0-11.9,18.18,66.35,66.35,0,0,0,0,46.59,53.75,53.75,0,0,0,11.9,18.18,52.17,52.17,0,0,0,18.18,11.78,62.83,62.83,0,0,0,23,4.1,57.47,57.47,0,0,0,24.58-5.25,60.94,60.94,0,0,0,20.48-16l26.62,24.58a83.2,83.2,0,0,1-31.62,23.81Q614.83,666.74,591.27,666.74Z"/><polygon points="1884.12 484.47 1884.12 593.19 1795.03 484.47 1760.73 484.47 1760.73 663.67 1801.69 663.67 1801.69 554.9 1891.03 663.67 1925.08 663.67 1925.08 484.47 1884.12 484.47"/><polygon points="2008.79 630.39 2008.79 588.92 2091.99 588.92 2091.99 556.66 2008.79 556.66 2008.79 517.75 2103 517.75 2103 484.47 1967.58 484.47 1967.58 663.67 2106.33 663.67 2106.33 630.39 2008.79 630.39"/><polygon points="2182.57 629.88 2280.66 511.35 2280.66 484.47 2129.88 484.47 2129.88 518.26 2226.15 518.26 2127.83 636.79 2127.83 663.67 2284.5 663.67 2284.5 629.88 2182.57 629.88"/></svg>