<svg xmlns="http://www.w3.org/2000/svg" width="2300" height="1150" viewBox="0 0 2300 1150"><defs><style>.a{fill:#fff;stroke-width:50px;}.a,.d{stroke:#000;}.a,.b,.c,.d{stroke-miterlimit:10;}.b,.c,.d{fill:none;stroke-width:52px;}.b{stroke:#fff;}.c{stroke:#c1272d;}.e{fill:#c1272d;}</style></defs><title>taconez-logo-full</title><path class="a" d="M1622,573c0,262.34-212.66,475-475,475S672,835.34,672,573"/><path d="M647,573c0-276.14,223.86-500,500-500s500,223.86,500,500"/><path class="b" d="M1419.33,447.53l100.33,60a6.56,6.56,0,0,1-3.37,12.19H1224.6a6.56,6.56,0,0,1-5.38-2.8L890.62,309.55a6.56,6.56,0,0,0-11.94,3.76v206.4L788.53,519V455.43"/><line class="c" x1="715" y1="571.87" x2="1577" y2="571.87"/><path class="d" d="M1420.28,694.43l100.33-60a6.56,6.56,0,0,0-3.37-12.19h-291.7a6.56,6.56,0,0,0-5.38,2.8L891.57,832.41a6.56,6.56,0,0,1-11.94-3.76V622.26l-90.15.66v63.62"/><path class="e" d="M1055.12,284c2.84,13.22,5.07,26.44,7.2,39.66s4,26.44,5.65,39.66c3.39,26.44,6.09,52.89,8.31,79.33s3.91,52.89,5.21,79.33,2.15,52.89,2.63,79.33l1.09,60.12-48.43-37.62c-6.53-5.08-13-10.26-19.46-15.4S1004.45,598,998,592.83l-19.17-15.76c-6.34-5.32-12.73-10.57-19-15.95l47.37-22.73q-.35,45.49-1.9,91t-4.49,91q-1.48,22.75-3.36,45.51t-4.25,45.52q-2.34,22.76-5.31,45.53c-2,15.18-4.14,30.36-6.87,45.54-3-15.14-5.33-30.28-7.58-45.43s-4.22-30.29-6-45.44-3.45-30.3-5-45.45-2.85-30.3-4.07-45.45q-3.69-45.46-5.91-90.93t-3.32-90.95l-1.42-60.61,48.79,37.87c6.54,5.07,13,10.27,19.46,15.4l19.31,15.59c6.38,5.26,12.8,10.48,19.16,15.78s12.72,10.58,19,16l-47.34,22.49q.72-39.66,2.63-79.33c1.3-26.44,3-52.89,5.21-79.33s4.93-52.89,8.31-79.33q2.52-19.83,5.65-39.66C1050,310.44,1052.28,297.22,1055.12,284Z"/><path d="M137.35,663.67V518.26H80V484.47H236.16v33.79H178.82V663.67Z"/><path d="M383.37,663.67h43.52l-80.13-179.2h-41l-79.87,179.2h42.5l16-38.4h83.07Zm-85.88-69.89L326,525.2l28.41,68.58Z"/><path d="M528.77,666.74A107.31,107.31,0,0,1,490.25,660,89.47,89.47,0,0,1,439,611.19,98.08,98.08,0,0,1,439,537a88.76,88.76,0,0,1,20.48-29.44,92.22,92.22,0,0,1,30.85-19.33A107,107,0,0,1,529,481.4q23.29,0,42.11,8.06a82.09,82.09,0,0,1,31.62,23.68l-26.62,24.58A62.36,62.36,0,0,0,555.65,522a57.53,57.53,0,0,0-24.58-5.25,62.9,62.9,0,0,0-23,4.1,52.22,52.22,0,0,0-18.18,11.78A53.79,53.79,0,0,0,478,550.77a66.35,66.35,0,0,0,0,46.59,53.75,53.75,0,0,0,11.9,18.18A52.17,52.17,0,0,0,508,627.32a62.83,62.83,0,0,0,23,4.1,57.47,57.47,0,0,0,24.58-5.25,60.94,60.94,0,0,0,20.48-16l26.62,24.58a83.2,83.2,0,0,1-31.62,23.81Q552.33,666.74,528.77,666.74Z"/><polygon points="1827.62 484.47 1827.62 593.19 1738.53 484.47 1704.23 484.47 1704.23 663.67 1745.19 663.67 1745.19 554.9 1834.53 663.67 1868.58 663.67 1868.58 484.47 1827.62 484.47"/><polygon points="1952.29 630.39 1952.29 588.92 2035.49 588.92 2035.49 556.66 1952.29 556.66 1952.29 517.75 2046.5 517.75 2046.5 484.47 1911.08 484.47 1911.08 663.67 2049.83 663.67 2049.83 630.39 1952.29 630.39"/><polygon points="2126.07 629.88 2224.16 511.35 2224.16 484.47 2073.38 484.47 2073.38 518.26 2169.65 518.26 2071.33 636.79 2071.33 663.67 2228 663.67 2228 629.88 2126.07 629.88"/></svg>